<?xml version="1.0" encoding="UTF-8" standalone="no"?>
<!-- Created with Inkscape (http://www.inkscape.org/) -->

<svg
   width="32"
   height="32"
   viewBox="0 0 8.4666664 8.4666669"
   version="1.1"
   id="svg5"
   inkscape:version="1.1.2 (0a00cf5339, 2022-02-04)"
   sodipodi:docname="flet.svg"
   xmlns:inkscape="http://www.inkscape.org/namespaces/inkscape"
   xmlns:sodipodi="http://sodipodi.sourceforge.net/DTD/sodipodi-0.dtd"
   xmlns="http://www.w3.org/2000/svg"
   xmlns:svg="http://www.w3.org/2000/svg">
  <sodipodi:namedview
     id="namedview7"
     pagecolor="#ffffff"
     bordercolor="#666666"
     borderopacity="1.0"
     inkscape:pageshadow="2"
     inkscape:pageopacity="0.0"
     inkscape:pagecheckerboard="0"
     inkscape:document-units="mm"
     showgrid="false"
     units="px"
     inkscape:showpageshadow="2"
     inkscape:deskcolor="#21222c"
     inkscape:zoom="3.6875"
     inkscape:cx="32.813559"
     inkscape:cy="18.169492"
     inkscape:window-width="1920"
     inkscape:window-height="1005"
     inkscape:window-x="0"
     inkscape:window-y="0"
     inkscape:window-maximized="1"
     inkscape:current-layer="layer1"
     showguides="true"
     inkscape:guide-bbox="true" />
  <defs
     id="defs2" />
  <g
     inkscape:label="Layer 1"
     inkscape:groupmode="layer"
     id="layer1">
    <g
       id="g1521"
       transform="matrix(0.33475037,0,0,0.33475037,4.3698781,2.9100845)"
       style="stroke-width:2.9873">
      <path
         fill="#ee3167"
         d="m -8.5487886,4.010531 c -0.077918,-0.1393363 -0.060501,-0.2392551 0.00917,-0.3785914 2.8793113,-5.3497807 7.2244039,-8.6306006 12.6988539,-10.9773173 0.1860873,-0.078835 0.4620098,0.1393363 0.3950917,0.3345905 C 3.7384732,-4.6356533 3.1627943,-2.3237707 2.8291205,0.16044892 2.5247807,2.4494144 2.4404456,4.8162981 2.7493688,7.2895175 3.0757091,10.093661 3.7467234,12.422044 4.5534073,14.931014 4.6432425,15.210603 4.3572364,15.337106 4.1399818,15.229853 -1.5608897,12.423877 -5.8821485,8.7534654 -8.5487886,4.010531 Z"
         id="path7897"
         style="clip-rule:evenodd;fill:#ee3167;fill-rule:evenodd;stroke-width:2.34909;image-rendering:optimizeQuality;shape-rendering:geometricPrecision;text-rendering:geometricPrecision" />
      <path
         fill="#0098da"
         fill-opacity="0.639216"
         d="M 7.3917847,8.9758606 C 4.2393009,7.9867562 1.4195742,6.3119705 -1.0783957,4.0990901 -1.2452326,3.9505869 -1.2259822,3.7443325 -1.0756457,3.6004128 1.4058239,1.2280289 4.2218839,-0.6337608 7.3340335,-1.9510389 7.6081227,-2.067458 7.8336275,-1.8410365 7.7520424,-1.5275298 6.8701903,1.8559589 6.6758528,5.2000302 7.7639593,8.5514349 7.8537946,8.8310242 7.6292065,9.0501122 7.3917847,8.9758606 Z"
         id="path7899-7"
         style="clip-rule:evenodd;fill:#0098da;fill-rule:evenodd;stroke-width:2.34909;image-rendering:optimizeQuality;shape-rendering:geometricPrecision;text-rendering:geometricPrecision" />
    </g>
  </g>
</svg>
