<?xml version="1.0" encoding="UTF-8" standalone="no"?>
<!-- Created with Inkscape (http://www.inkscape.org/) -->

<svg
   width="32"
   height="32"
   viewBox="0 0 8.4666664 8.4666669"
   version="1.1"
   id="svg5"
   inkscape:version="1.2.1 (1:1.2.1+202210291243+9c6d41e410)"
   sodipodi:docname="github.svg"
   xmlns:inkscape="http://www.inkscape.org/namespaces/inkscape"
   xmlns:sodipodi="http://sodipodi.sourceforge.net/DTD/sodipodi-0.dtd"
   xmlns="http://www.w3.org/2000/svg"
   xmlns:svg="http://www.w3.org/2000/svg">
  <sodipodi:namedview
     id="namedview7"
     pagecolor="#ffffff"
     bordercolor="#666666"
     borderopacity="1.0"
     inkscape:pageshadow="2"
     inkscape:pageopacity="0.0"
     inkscape:pagecheckerboard="0"
     inkscape:document-units="mm"
     showgrid="false"
     units="px"
     inkscape:showpageshadow="2"
     inkscape:deskcolor="#21222c"
     inkscape:zoom="10.429825"
     inkscape:cx="17.402018"
     inkscape:cy="17.354078"
     inkscape:window-width="1920"
     inkscape:window-height="1011"
     inkscape:window-x="0"
     inkscape:window-y="0"
     inkscape:window-maximized="1"
     inkscape:current-layer="layer1" />
  <defs
     id="defs2" />
  <g
     inkscape:label="Layer 1"
     inkscape:groupmode="layer"
     id="layer1">
    <path
       d="m 4.233334,0.55976408 c -2.0812394,0 -3.76694907,1.68665152 -3.76694907,3.76694922 0,1.664756 1.07923087,3.0764202 2.57565147,3.573893 0.1883474,0.035551 0.2573295,-0.08099 0.2573295,-0.1810491 0,-0.089465 -0.00306,-0.3265474 -0.00471,-0.6403814 C 2.2467392,7.3063701 2.0259018,6.5736984 2.0259018,6.5736984 1.8545056,6.1388512 1.6068287,6.0227822 1.6068287,6.0227822 1.2656844,5.7892313 1.6331973,5.7939398 1.6331973,5.7939398 2.0115403,5.8203082 2.2102468,6.1819357 2.2102468,6.1819357 2.5462116,6.7580434 3.0919485,6.5915914 3.3073709,6.4952986 3.3412733,6.2516243 3.4382722,6.085643 3.5458658,5.9914693 2.7093676,5.8972956 1.8300204,5.5733379 1.8300204,4.1298901 c 0,-0.4113038 0.1459693,-0.7470331 0.3877603,-1.0107195 -0.042378,-0.095116 -0.1695126,-0.4781671 0.032961,-0.9970644 0,0 0.3154819,-0.1010013 1.0359111,0.3861123 0.3013559,-0.083815 0.6215465,-0.125251 0.9417373,-0.1271345 0.3201905,0.00188 0.6403813,0.04332 0.9417372,0.1271345 0.7157202,-0.4871136 1.0312022,-0.3861123 1.0312022,-0.3861123 0.2024734,0.5188973 0.075339,0.9019488 0.037669,0.9970644 0.240143,0.2636864 0.3861123,0.5996512 0.3861123,1.0107195 0,1.4472147 -0.8805243,1.7657574 -1.7186706,1.8582833 0.1318434,0.1130083 0.2542691,0.3439694 0.2542691,0.6968855 0,0.5040648 -0.00471,0.9090117 -0.00471,1.0314376 0,0.098883 0.065921,0.2165996 0.2589776,0.17893 C 6.9219927,7.40125 8.0002817,5.9886441 8.0002817,4.3264779 8.0002827,2.2461801 6.3136315,0.55952868 4.233334,0.55952868 Z"
       id="path4"
       style="fill:#17e9cd;stroke-width:0.235434" />
  </g>
</svg>
