<?xml version="1.0" encoding="UTF-8" standalone="no"?>
<!-- Generated by IcoMoon.io -->

<svg
   version="1.1"
   width="32"
   height="32"
   viewBox="0 0 32 32"
   id="svg6"
   sodipodi:docname="github.svg"
   inkscape:version="1.2.1 (1:1.2.1+202210291243+9c6d41e410)"
   xmlns:inkscape="http://www.inkscape.org/namespaces/inkscape"
   xmlns:sodipodi="http://sodipodi.sourceforge.net/DTD/sodipodi-0.dtd"
   xmlns="http://www.w3.org/2000/svg"
   xmlns:svg="http://www.w3.org/2000/svg">
  <defs
     id="defs10" />
  <sodipodi:namedview
     id="namedview8"
     pagecolor="#ffffff"
     bordercolor="#666666"
     borderopacity="1.0"
     inkscape:showpageshadow="2"
     inkscape:pageopacity="0.0"
     inkscape:pagecheckerboard="0"
     inkscape:deskcolor="#d1d1d1"
     showgrid="false"
     inkscape:zoom="7.375"
     inkscape:cx="16.474576"
     inkscape:cy="16"
     inkscape:window-width="1920"
     inkscape:window-height="1011"
     inkscape:window-x="0"
     inkscape:window-y="0"
     inkscape:window-maximized="1"
     inkscape:current-layer="svg6" />
  <path
     d="m 16,2.1150155 c -7.8661017,0 -14.2372881,6.3747458 -14.2372881,14.2372885 0,6.291991 4.078983,11.627415 9.7347461,13.507627 0.711864,0.134364 0.972584,-0.306102 0.972584,-0.68428 0,-0.338136 -0.01157,-1.234195 -0.0178,-2.420339 C 8.4916102,27.613999 7.6569492,24.844846 7.6569492,24.844846 7.0091525,23.201329 6.0730508,22.762643 6.0730508,22.762643 c -1.2893644,-0.882712 0.099661,-0.864916 0.099661,-0.864916 1.4299576,0.09966 2.1809745,1.466441 2.1809745,1.466441 1.2697882,2.177415 3.3324157,1.548305 4.1466107,1.184364 0.128135,-0.920974 0.494745,-1.548305 0.901398,-1.904237 -3.161568,-0.355932 -6.4850849,-1.580339 -6.4850849,-7.03589 0,-1.554534 0.5516949,-2.823432 1.4655508,-3.820042 C 8.2219914,11.428871 7.741483,9.9811172 8.5067372,8.0199307 c 0,0 1.1923729,-0.3817372 3.9152548,1.4593221 1.138983,-0.3167797 2.349152,-0.4733898 3.559322,-0.4805085 1.210169,0.00712 2.420339,0.1637288 3.559322,0.4805085 2.705084,-1.8410593 3.897457,-1.4593221 3.897457,-1.4593221 0.765254,1.9611865 0.284746,3.4089403 0.142373,3.7684323 0.907627,0.99661 1.459322,2.266398 1.459322,3.820042 0,5.469788 -3.327966,6.673729 -6.495763,7.023433 0.498306,0.427118 0.961017,1.300042 0.961017,2.633898 0,1.905127 -0.0178,3.435635 -0.0178,3.898347 0,0.373729 0.249152,0.818644 0.978813,0.676271 C 26.16186,27.9726 30.237284,22.633617 30.237284,16.351414 30.237288,8.4888714 23.862542,2.1141257 16,2.1141257 Z"
     id="path4"
     style="fill:#17e9cd;stroke-width:0.889831" />
</svg>
