<?xml version="1.0" encoding="UTF-8" standalone="no"?>
<svg
   viewBox="0 0 100 100"
   fill="none"
   version="1.1"
   id="svg7"
   sodipodi:docname="graphql.svg"
   inkscape:version="1.1.2 (0a00cf5339, 2022-02-04)"
   inkscape:export-filename="/home/daniel/Server/DanielRiosDev/public/images/svelte.png"
   inkscape:export-xdpi="329.88199"
   inkscape:export-ydpi="329.88199"
   xmlns:inkscape="http://www.inkscape.org/namespaces/inkscape"
   xmlns:sodipodi="http://sodipodi.sourceforge.net/DTD/sodipodi-0.dtd"
   xmlns="http://www.w3.org/2000/svg"
   xmlns:svg="http://www.w3.org/2000/svg">
  <defs
     id="defs11" />
  <sodipodi:namedview
     id="namedview9"
     pagecolor="#ffffff"
     bordercolor="#666666"
     borderopacity="1.0"
     inkscape:pageshadow="2"
     inkscape:pageopacity="0.0"
     inkscape:pagecheckerboard="0"
     showgrid="false"
     inkscape:zoom="6.46"
     inkscape:cx="49.845201"
     inkscape:cy="50"
     inkscape:window-width="1920"
     inkscape:window-height="1005"
     inkscape:window-x="0"
     inkscape:window-y="0"
     inkscape:window-maximized="1"
     inkscape:current-layer="svg7" />
  <g
     id="Graphql"
     transform="matrix(1.4714019,0,0,1.4714019,1.9342301,2.9151328)"
     style="stroke-width:0.679624">
    <path
       id="Vector"
       d="M 32.6667,59.548 9.33334,45.76 V 18.24 L 32.6667,4.45203 56,18.24 V 45.76 Z M 12,44.24 32.6667,56.452 53.3333,44.24 V 19.76 L 32.6667,7.54803 12,19.76 Z"
       fill="#e8457c"
       style="stroke-width:0.461889" />
    <path
       id="Vector_2"
       d="M 32.6667,12 C 35.6122,12 38,9.61216 38,6.66665 38,3.72113 35.6122,1.33331 32.6667,1.33331 c -2.9456,0 -5.3334,2.38782 -5.3334,5.33334 0,2.94551 2.3878,5.33335 5.3334,5.33335 z"
       fill="#e8457c"
       style="stroke-width:0.461889" />
    <path
       id="Vector_3"
       d="M 32.6667,62.6667 C 35.6122,62.6667 38,60.2789 38,57.3333 38,54.3878 35.6122,52 32.6667,52 c -2.9456,0 -5.3334,2.3878 -5.3334,5.3333 0,2.9456 2.3878,5.3334 5.3334,5.3334 z"
       fill="#e8457c"
       style="stroke-width:0.461889" />
    <path
       id="Vector_4"
       d="m 11.3333,49.3334 c 2.9456,0 5.3334,-2.3879 5.3334,-5.3334 0,-2.9455 -2.3878,-5.3333 -5.3334,-5.3333 C 8.38781,38.6667 6,41.0545 6,44 c 0,2.9455 2.38781,5.3334 5.3333,5.3334 z"
       fill="#e8457c"
       style="stroke-width:0.461889" />
    <path
       id="Vector_5"
       d="m 54,49.3334 c 2.9455,0 5.3333,-2.3879 5.3333,-5.3334 0,-2.9455 -2.3878,-5.3333 -5.3333,-5.3333 -2.9455,0 -5.3333,2.3878 -5.3333,5.3333 0,2.9455 2.3878,5.3334 5.3333,5.3334 z"
       fill="#e8457c"
       style="stroke-width:0.461889" />
    <path
       id="Vector_6"
       d="m 11.3333,25.3334 c 2.9456,0 5.3334,-2.3879 5.3334,-5.3334 0,-2.9455 -2.3878,-5.3333 -5.3334,-5.3333 C 8.38781,14.6667 6,17.0545 6,20 c 0,2.9455 2.38781,5.3334 5.3333,5.3334 z"
       fill="#e8457c"
       style="stroke-width:0.461889" />
    <path
       id="Vector_7"
       d="m 54,25.3334 c 2.9455,0 5.3333,-2.3879 5.3333,-5.3334 0,-2.9455 -2.3878,-5.3333 -5.3333,-5.3333 -2.9455,0 -5.3333,2.3878 -5.3333,5.3333 0,2.9455 2.3878,5.3334 5.3333,5.3334 z"
       fill="#e8457c"
       style="stroke-width:0.461889" />
    <path
       id="Vector_8"
       d="M 56.96,46 H 8.37334 L 32.6667,3.30402 Z m -44,-2.6667 H 52.3733 L 32.6667,8.69602 Z"
       fill="#e8457c"
       style="stroke-width:0.461889" />
  </g>
</svg>
