<?xml version="1.0" encoding="UTF-8" standalone="no"?>
<!-- Created with Inkscape (http://www.inkscape.org/) -->

<svg
   width="32"
   height="32"
   viewBox="0 0 8.4666664 8.4666669"
   version="1.1"
   id="svg5"
   inkscape:version="1.2 (1:1.2.1+202207142221+cd75a1ee6d)"
   sodipodi:docname="favicon.svg"
   inkscape:export-filename="icon.png"
   inkscape:export-xdpi="960"
   inkscape:export-ydpi="960"
   xmlns:inkscape="http://www.inkscape.org/namespaces/inkscape"
   xmlns:sodipodi="http://sodipodi.sourceforge.net/DTD/sodipodi-0.dtd"
   xmlns="http://www.w3.org/2000/svg"
   xmlns:svg="http://www.w3.org/2000/svg">
  <sodipodi:namedview
     id="namedview7"
     pagecolor="#ffffff"
     bordercolor="#666666"
     borderopacity="1.0"
     inkscape:pageshadow="2"
     inkscape:pageopacity="0.0"
     inkscape:pagecheckerboard="0"
     inkscape:document-units="mm"
     showgrid="false"
     units="px"
     inkscape:showpageshadow="2"
     inkscape:deskcolor="#21222c"
     inkscape:zoom="14.75"
     inkscape:cx="20.576271"
     inkscape:cy="18.372881"
     inkscape:window-width="1920"
     inkscape:window-height="1011"
     inkscape:window-x="0"
     inkscape:window-y="0"
     inkscape:window-maximized="1"
     inkscape:current-layer="layer1" />
  <defs
     id="defs2" />
  <g
     inkscape:label="Layer 1"
     inkscape:groupmode="layer"
     id="layer1">
    <path
       id="path1509"
       style="fill:#17e9cd;stroke-width:0.261762;stroke-linecap:round;stroke-linejoin:round;paint-order:stroke fill markers;stop-color:#000000"
       d="M 4.2333333 0.26458333 A 3.96875 3.96875 0 0 0 0.26458333 4.2333333 A 3.96875 3.96875 0 0 0 4.2333333 8.2020833 A 3.96875 3.96875 0 0 0 8.2020833 4.2333333 A 3.96875 3.96875 0 0 0 4.2333333 0.26458333 z M 4.7697347 1.9332153 C 5.1948705 1.9332153 5.5425426 1.9684119 5.8120483 2.0386353 C 6.083452 2.1088586 6.3073347 2.2044889 6.483842 2.3259562 C 6.6603492 2.4474236 6.8055986 2.5952474 6.9194743 2.7698568 C 7.1320422 3.0944024 7.2383179 3.4999337 7.2383179 3.9858032 C 7.2383179 4.4982438 7.0975315 4.9698744 6.8166382 5.4007039 C 6.507276 5.873288 6.0984844 6.2015578 5.5898397 6.3856567 C 5.3127422 6.484349 5.0158919 6.5334513 4.698938 6.5334513 C 4.1940892 6.5334513 3.7992033 6.4541322 3.5145142 6.2947062 C 3.4348012 6.3725213 3.3379682 6.4216236 3.2240926 6.4425008 C 3.1102169 6.4652761 2.9529504 6.4766073 2.75177 6.4766073 C 2.5505896 6.4766073 2.3576097 6.4608128 2.1735107 6.4285482 C 1.9913097 6.3962831 1.8321545 6.3554212 1.6955037 6.306075 C 1.5588529 6.254831 1.4469116 6.1988603 1.3596069 6.1381266 C 1.2723023 6.075495 1.2283488 6.0195244 1.2283488 5.9701782 C 1.2283488 5.9208323 1.2484368 5.8825444 1.2882935 5.8559733 C 1.3262521 5.827504 1.3696888 5.8135986 1.4190348 5.8135986 C 1.5898483 5.8135986 1.7150095 5.7866421 1.7947225 5.7335002 C 1.8763333 5.6784606 1.9592606 5.5759617 2.0427694 5.4260254 C 2.1281761 5.2760891 2.2068094 5.1056026 2.2789307 4.9139119 C 2.3510519 4.7222212 2.4183539 4.5379982 2.4809855 4.3614909 C 2.545515 4.1849836 2.6184827 4.0064262 2.7000936 3.826123 C 2.8766009 3.4294562 3.0979091 3.1684884 3.363619 3.0432251 C 3.494576 2.9824914 3.6618021 2.9359635 3.8648804 2.9036987 C 4.0679587 2.8695361 4.2717531 2.8525391 4.4767293 2.8525391 C 4.6817055 2.8525391 4.7842041 2.9002696 4.7842041 2.995166 C 4.7842041 3.0672873 4.7407674 3.1716744 4.6534627 3.3083252 C 4.568056 3.4449759 4.475686 3.6563247 4.3769938 3.9429118 C 4.2783015 4.2294989 4.1682488 4.5709885 4.0467814 4.9676554 C 3.9272119 5.3643223 3.8341561 5.6548211 3.7677287 5.8389201 L 3.7196696 5.9644938 C 3.7785055 5.9701871 3.8703587 5.972762 3.9956217 5.972762 C 4.120885 5.972762 4.2604687 5.9463223 4.4142008 5.8931803 C 4.5698308 5.8400387 4.7044349 5.7677566 4.8183105 5.6766561 C 4.9321862 5.5836576 5.0346848 5.4748075 5.1257853 5.3495443 C 5.2187838 5.2242811 5.2948426 5.0910489 5.3536784 4.9506022 C 5.4144121 4.8082576 5.4647171 4.6585452 5.5045736 4.5010173 C 5.5785928 4.2106343 5.6156779 3.8993615 5.6156779 3.5672241 C 5.6156779 2.887766 5.2158123 2.5481649 4.4167847 2.5481649 C 4.1757478 2.5481649 3.9185571 2.5715136 3.6452555 2.6189616 C 3.3738518 2.6645115 3.1455062 2.7160192 2.9595093 2.7729574 C 2.7735123 2.8298953 2.6043977 2.8820889 2.4525635 2.9295369 C 2.3007293 2.9750869 2.209562 2.9977498 2.1791951 2.9977498 C 2.0748091 2.9977498 2.0226156 2.9618674 2.0226156 2.8897461 C 2.0226156 2.8157269 2.0797889 2.7403539 2.1936646 2.6644368 C 2.5599647 2.4196047 2.9744219 2.2365838 3.4375163 2.1151164 C 3.9025085 1.993649 4.3464968 1.9332153 4.7697347 1.9332153 z " />
    <g
       aria-label="D"
       id="text110"
       style="font-size:5.83044px;line-height:1.25;stroke-width:0.7288" />
  </g>
</svg>
