<?xml version="1.0" encoding="UTF-8" standalone="no"?>
<!-- Created with Inkscape (http://www.inkscape.org/) -->

<svg
   width="32"
   height="32"
   viewBox="0 0 8.4666664 8.4666669"
   version="1.1"
   id="svg5"
   inkscape:version="1.1.2 (0a00cf5339, 2022-02-04)"
   sodipodi:docname="jquery.svg"
   xmlns:inkscape="http://www.inkscape.org/namespaces/inkscape"
   xmlns:sodipodi="http://sodipodi.sourceforge.net/DTD/sodipodi-0.dtd"
   xmlns="http://www.w3.org/2000/svg"
   xmlns:svg="http://www.w3.org/2000/svg">
  <sodipodi:namedview
     id="namedview7"
     pagecolor="#ffffff"
     bordercolor="#666666"
     borderopacity="1.0"
     inkscape:pageshadow="2"
     inkscape:pageopacity="0.0"
     inkscape:pagecheckerboard="0"
     inkscape:document-units="mm"
     showgrid="false"
     units="px"
     inkscape:showpageshadow="2"
     inkscape:deskcolor="#21222c"
     inkscape:zoom="20.85965"
     inkscape:cx="20.014717"
     inkscape:cy="13.710681"
     inkscape:window-width="1920"
     inkscape:window-height="1005"
     inkscape:window-x="0"
     inkscape:window-y="0"
     inkscape:window-maximized="1"
     inkscape:current-layer="layer1"
     showguides="true"
     inkscape:guide-bbox="true" />
  <defs
     id="defs2" />
  <g
     inkscape:label="Layer 1"
     inkscape:groupmode="layer"
     id="layer1">
    <circle
       style="fill:#0f6eb0;stroke-width:0.294481;stroke-linecap:round;stroke-linejoin:round;paint-order:stroke fill markers;stop-color:#000000"
       id="path843"
       cx="4.2333331"
       cy="4.2333331"
       r="3.5287626" />
    <path
       id="path843-3"
       style="fill:#7cd1f5;fill-opacity:1;stroke-width:0.294481;stroke-linecap:round;stroke-linejoin:round;paint-order:stroke fill markers;stop-color:#000000"
       d="M 2.9783187,1.8570861 A 2.6634446,2.6634446 0 0 0 1.6911731,4.1357241 2.6634446,2.6634446 0 0 0 4.3547846,6.7993353 2.6634446,2.6634446 0 0 0 6.3588313,5.8870222 2.6634446,2.6634446 0 0 1 4.9831456,6.2712156 2.6634446,2.6634446 0 0 1 2.3195341,3.6079943 2.6634446,2.6634446 0 0 1 2.9783187,1.8570861 Z" />
    <path
       id="path843-3-7"
       style="fill:#7cd1f5;fill-opacity:1;stroke-width:0.294481;stroke-linecap:round;stroke-linejoin:round;paint-order:stroke fill markers;stop-color:#000000"
       d="M 3.9577416,1.840901 A 1.9638941,1.9638941 0 0 0 3.0086632,3.5210575 1.9638941,1.9638941 0 0 0 4.9726802,5.4850745 1.9638941,1.9638941 0 0 0 6.4503672,4.8123793 1.9638941,1.9638941 0 0 1 5.4360032,5.0956648 1.9638941,1.9638941 0 0 1 3.471986,3.1319353 1.9638941,1.9638941 0 0 1 3.9577416,1.840901 Z" />
    <path
       id="path843-3-7-5"
       style="fill:#7cd1f5;fill-opacity:1;stroke-width:0.294481;stroke-linecap:round;stroke-linejoin:round;paint-order:stroke fill markers;stop-color:#000000"
       d="M 4.8260662,1.8504116 A 1.313791,1.313791 0 0 0 4.1911589,2.97439 1.313791,1.313791 0 0 0 5.5050322,4.2882633 1.313791,1.313791 0 0 0 6.4935641,3.8382487 1.313791,1.313791 0 0 1 5.8149825,4.0277589 1.313791,1.313791 0 0 1 4.5011091,2.714078 1.313791,1.313791 0 0 1 4.8260662,1.8504116 Z" />
  </g>
</svg>
