<?xml version="1.0" encoding="UTF-8" standalone="no"?>
<!-- Created with Inkscape (http://www.inkscape.org/) -->

<svg
   width="32"
   height="32"
   viewBox="0 0 8.4666664 8.4666669"
   version="1.1"
   id="svg5"
   inkscape:version="1.1.2 (0a00cf5339, 2022-02-04)"
   sodipodi:docname="laravel.svg"
   xmlns:inkscape="http://www.inkscape.org/namespaces/inkscape"
   xmlns:sodipodi="http://sodipodi.sourceforge.net/DTD/sodipodi-0.dtd"
   xmlns="http://www.w3.org/2000/svg"
   xmlns:svg="http://www.w3.org/2000/svg">
  <sodipodi:namedview
     id="namedview7"
     pagecolor="#ffffff"
     bordercolor="#666666"
     borderopacity="1.0"
     inkscape:pageshadow="2"
     inkscape:pageopacity="0.0"
     inkscape:pagecheckerboard="0"
     inkscape:document-units="mm"
     showgrid="false"
     units="px"
     inkscape:showpageshadow="2"
     inkscape:deskcolor="#21222c"
     inkscape:zoom="3.6875"
     inkscape:cx="5.1525424"
     inkscape:cy="26.305085"
     inkscape:window-width="1920"
     inkscape:window-height="1005"
     inkscape:window-x="0"
     inkscape:window-y="0"
     inkscape:window-maximized="1"
     inkscape:current-layer="layer1" />
  <defs
     id="defs2" />
  <g
     inkscape:label="Layer 1"
     inkscape:groupmode="layer"
     id="layer1">
    <path
       d="m 7.7924705,2.2250597 c -0.00113,-0.00332 -0.00248,-0.00658 -0.00404,-0.00975 -0.00206,-0.00616 -0.00461,-0.012145 -0.00759,-0.0179 -0.00234,-0.00359 -0.00489,-0.00698 -0.00774,-0.010179 -0.00312,-0.0047 -0.00659,-0.0092 -0.010326,-0.013462 -0.00326,-0.00315 -0.00745,-0.00574 -0.011035,-0.0086 -0.00411,-0.00352 -0.00838,-0.00677 -0.012885,-0.00974 L 6.3597258,1.3614061 c -0.017421,-0.010059 -0.037187,-0.015355 -0.057301,-0.015355 -0.020128,0 -0.039894,0.00529 -0.057315,0.015355 l -1.379435,0.7944528 c -0.00439,0.00299 -0.00865,0.0063 -0.012608,0.00989 -0.0039,0.00262 -0.00763,0.00549 -0.011177,0.00859 -0.00376,0.0042 -0.0072,0.00865 -0.010312,0.013331 -0.00241,0.00344 -0.0056,0.00645 -0.00775,0.010165 -0.00291,0.0058 -0.00539,0.011784 -0.00745,0.017915 -0.00113,0.0033 -0.00298,0.0063 -0.00404,0.00974 -0.00262,0.00972 -0.00397,0.019737 -0.00404,0.0298 V 3.7630956 L 3.6590246,4.4248852 V 1.4744496 c 1.49e-5,-0.010117 -0.00135,-0.02019 -0.00404,-0.029944 -8.505e-4,-0.00344 -0.00284,-0.00645 -0.00404,-0.00974 -0.00198,-0.00611 -0.00447,-0.012053 -0.00745,-0.017766 -0.00198,-0.00373 -0.00532,-0.00673 -0.00774,-0.010315 -0.00312,-0.00471 -0.00659,-0.0092 -0.010326,-0.013469 -0.00354,-0.00305 -0.0073,-0.00592 -0.011177,-0.0086 -0.00404,-0.00348 -0.00823,-0.00673 -0.012608,-0.00974 L 2.2221299,0.58085181 c -0.017423,-0.0100597 -0.037188,-0.015356 -0.057315,-0.015356 -0.020112,0 -0.039878,0.005294 -0.057303,0.015356 L 0.72821604,1.3748746 c -0.004479,0.00293 -0.008696,0.00624 -0.0126083,0.00989 -0.003948,0.00262 -0.007732,0.00549 -0.0113184,0.0086 -0.003707,0.0042 -0.007105,0.00865 -0.0101724,0.013325 -0.00258,0.00358 -0.005734,0.00659 -0.00788,0.010315 -0.002934,0.00571 -0.005379,0.011647 -0.007307,0.017766 -0.001566,0.00312 -0.002955,0.00632 -0.004153,0.0096 -0.002636,0.00981 -0.003983,0.019927 -0.004011,0.030088 v 4.7237343 c -5.443e-5,0.02017 0.005216,0.039993 0.015278,0.057492 0.0100625,0.017484 0.0245616,0.031999 0.0420318,0.042077 L 3.486098,7.8858114 c 0.0061,0.00312 0.012495,0.00567 0.019058,0.00773 0.00298,0.00113 0.00588,0.00283 0.00902,0.00376 0.019242,0.00517 0.039504,0.00517 0.058732,0 0.00291,-7.087e-4 0.00532,-0.00227 0.00788,-0.00312 0.00695,-0.0022 0.013636,-0.00496 0.020071,-0.00831 L 6.3597307,6.2978101 c 0.017477,-0.010078 0.031971,-0.024593 0.042035,-0.042077 0.010064,-0.017491 0.015344,-0.037322 0.01528,-0.057492 V 4.6900784 l 1.3215511,-0.760921 c 0.017569,-0.01015 0.032141,-0.024783 0.042205,-0.042394 0.010078,-0.017625 0.01528,-0.037608 0.015096,-0.057894 V 2.2550045 c 7.86e-5,-0.010078 -0.00106,-0.020141 -0.0034,-0.029945 z M 2.1646843,0.81309795 3.313584,1.4743065 2.1645396,2.1359488 1.015767,1.4744496 Z M 3.4290689,1.6727407 V 4.5571276 L 2.7624206,4.9409569 2.2797203,5.2189029 V 2.3349484 L 2.9463828,1.9511205 Z m 0,5.9140453 L 0.90057475,6.1317015 V 1.6733133 l 0.48268865,0.277664 0.6665093,0.3839711 v 3.0829687 c 2.902e-4,0.00432 8.647e-4,0.00863 0.00172,0.012899 3.448e-4,0.00567 0.00111,0.011318 0.00229,0.016903 0.00145,0.00446 0.00328,0.00875 0.00544,0.012899 0.00159,0.00496 0.00361,0.00973 0.00602,0.014316 0.00265,0.0039 0.00552,0.00762 0.0086,0.011177 0.00286,0.00425 0.00602,0.00826 0.00946,0.012041 0.0033,0.00312 0.00745,0.00546 0.011031,0.0083 0.00391,0.0034 0.00803,0.00659 0.012322,0.00945 L 3.4274913,6.2635099 Z M 3.543685,6.0656524 2.396636,5.4163409 3.60142,4.7227557 4.9232645,3.9618205 6.0713256,4.6227427 5.2288704,5.1035632 Z M 6.187374,6.1311246 3.6587354,7.5875103 V 6.2649429 L 5.5316138,5.1961313 6.187374,4.821469 Z m 0,-1.7068162 L 5.7046884,4.1473587 5.0380258,3.7635294 v -1.3098 L 5.5207263,2.7316752 6.187374,3.1157937 Z M 6.3019908,2.9159281 5.1529317,2.2544275 6.3019908,1.5930816 7.4507606,2.2542829 Z M 6.4166075,4.4243084 V 3.1157937 L 7.0846868,2.7316752 7.5672427,2.4537294 v 1.3093662 z"
       id="path2"
       style="fill:#ff3427;stroke-width:0.264583" />
  </g>
</svg>
