<?xml version="1.0" encoding="UTF-8" standalone="no"?>
<!-- Created with Inkscape (http://www.inkscape.org/) -->

<svg
   width="32"
   height="32"
   viewBox="0 0 8.4666664 8.4666669"
   version="1.1"
   id="svg5"
   inkscape:version="1.2.1 (1:1.2.1+202210291243+9c6d41e410)"
   sodipodi:docname="link.svg"
   xmlns:inkscape="http://www.inkscape.org/namespaces/inkscape"
   xmlns:sodipodi="http://sodipodi.sourceforge.net/DTD/sodipodi-0.dtd"
   xmlns="http://www.w3.org/2000/svg"
   xmlns:svg="http://www.w3.org/2000/svg">
  <sodipodi:namedview
     id="namedview7"
     pagecolor="#ffffff"
     bordercolor="#666666"
     borderopacity="1.0"
     inkscape:pageshadow="2"
     inkscape:pageopacity="0.0"
     inkscape:pagecheckerboard="0"
     inkscape:document-units="mm"
     showgrid="false"
     units="px"
     inkscape:showpageshadow="2"
     inkscape:deskcolor="#21222c"
     inkscape:zoom="10.429825"
     inkscape:cx="17.402018"
     inkscape:cy="17.354078"
     inkscape:window-width="1920"
     inkscape:window-height="1011"
     inkscape:window-x="0"
     inkscape:window-y="0"
     inkscape:window-maximized="1"
     inkscape:current-layer="layer1" />
  <defs
     id="defs2" />
  <g
     inkscape:label="Layer 1"
     inkscape:groupmode="layer"
     id="layer1">
    <path
       d="m 6.3553406,4.5613365 v 1.9680193 c 0,0.090529 -0.036409,0.1722017 -0.096105,0.2318983 -0.059696,0.059696 -0.1413694,0.096105 -0.2318983,0.096105 H 2.4193019 c -0.090529,0 -0.1722018,-0.036409 -0.2318983,-0.096105 C 2.127707,6.7015575 2.0912986,6.6198847 2.0912986,6.5293558 V 2.9213205 c 0,-0.090529 0.036409,-0.1722018 0.096105,-0.2318983 0.059696,-0.059696 0.1413694,-0.096105 0.2318983,-0.096105 h 1.9680193 c 0.1810578,0 0.3280032,-0.1469454 0.3280032,-0.3280032 0,-0.1810578 -0.1469454,-0.3280032 -0.3280032,-0.3280032 H 2.419302 c -0.2715867,0 -0.5182451,0.1105376 -0.6956949,0.2883148 C 1.5461573,2.4034034 1.4352923,2.6497338 1.4352923,2.9213205 v 3.6080353 c 0,0.2715867 0.110537,0.518245 0.2883147,0.6956948 0.1777778,0.1774498 0.4241082,0.2883148 0.6956949,0.2883148 h 3.6080355 c 0.2715866,0 0.518245,-0.1105364 0.6956947,-0.2883148 C 6.9004819,7.0472728 7.011347,6.8009425 7.011347,6.5293558 V 4.5613365 c 0,-0.1810578 -0.1469455,-0.3280033 -0.3280033,-0.3280033 -0.1810577,0 -0.3280031,0.1469455 -0.3280031,0.3280033 z M 4.2912163,5.1212379 7.3393502,2.0731041 v 1.1762195 c 0,0.1810578 0.1469454,0.3280032 0.3280032,0.3280032 0.1810578,0 0.3280032,-0.1469454 0.3280032,-0.3280032 V 1.2813043 c 0,-0.044608 -0.00885,-0.086921 -0.024928,-0.1256252 -0.016073,-0.038704 -0.039689,-0.074785 -0.070849,-0.105945 -3.281e-4,-3.28e-4 -3.281e-4,-3.28e-4 -6.561e-4,-6.56e-4 -0.030176,-0.030176 -0.066256,-0.0544485 -0.105944,-0.0708487 -0.038706,-0.0160722 -0.081018,-0.0249282 -0.1256261,-0.0249282 H 5.6993341 c -0.1810578,0 -0.3280032,0.14694537 -0.3280032,0.32800317 0,0.1810578 0.1469454,0.3280033 0.3280032,0.3280033 H 6.8755537 L 3.8274198,4.6574414 c -0.1282493,0.1282493 -0.1282493,0.3358753 0,0.4637965 0.1282491,0.1279213 0.3358752,0.1282493 0.4637965,0 z"
       id="path4"
       style="fill:#17e9cd;stroke-width:0.328003" />
  </g>
</svg>
