<?xml version="1.0" encoding="UTF-8" standalone="no"?>
<!-- Created with Inkscape (http://www.inkscape.org/) -->

<svg
   width="32"
   height="32"
   viewBox="0 0 8.4666664 8.4666669"
   version="1.1"
   id="svg5"
   inkscape:version="1.1.2 (0a00cf5339, 2022-02-04)"
   sodipodi:docname="linkedin.svg"
   xmlns:inkscape="http://www.inkscape.org/namespaces/inkscape"
   xmlns:sodipodi="http://sodipodi.sourceforge.net/DTD/sodipodi-0.dtd"
   xmlns="http://www.w3.org/2000/svg"
   xmlns:svg="http://www.w3.org/2000/svg">
  <sodipodi:namedview
     id="namedview7"
     pagecolor="#ffffff"
     bordercolor="#666666"
     borderopacity="1.0"
     inkscape:pageshadow="2"
     inkscape:pageopacity="0.0"
     inkscape:pagecheckerboard="0"
     inkscape:document-units="mm"
     showgrid="false"
     units="px"
     inkscape:showpageshadow="2"
     inkscape:deskcolor="#21222c"
     inkscape:zoom="10.429825"
     inkscape:cx="17.066442"
     inkscape:cy="17.354078"
     inkscape:window-width="1920"
     inkscape:window-height="1005"
     inkscape:window-x="0"
     inkscape:window-y="0"
     inkscape:window-maximized="1"
     inkscape:current-layer="layer1" />
  <defs
     id="defs2" />
  <g
     inkscape:label="Layer 1"
     inkscape:groupmode="layer"
     id="layer1">
    <g
       id="g872"
       transform="matrix(0.23604826,0,0,0.23604826,0.45656069,-0.25144328)"
       style="stroke-width:1.12088">
      <path
         d="M 7.9518377,30.570855 H 1.9098564 v -19.4569 H 7.9518377 Z M 4.9275908,8.4598518 c -1.9320293,0 -3.4991147,-1.600263 -3.4991147,-3.5322922 0,-0.928024 0.3686559,-1.8180344 1.0248699,-2.4742448 0.6562104,-0.656214 1.5462208,-1.0248699 2.4742448,-1.0248699 0.9280239,0 1.8180435,0.3686559 2.4742538,1.0248699 0.6562104,0.6562104 1.0248699,1.5462208 1.0248699,2.4742448 0,1.9320292 -1.5677411,3.5322922 -3.4991237,3.5322922 z M 30.565058,30.570855 H 24.53609 v -9.47149 c 0,-2.257312 -0.04554,-5.152127 -3.141348,-5.152127 -3.141347,0 -3.622754,2.452479 -3.622754,4.989472 v 9.634145 h -6.035434 v -19.4569 h 5.794731 v 2.654112 h 0.08461 c 0.806625,-1.528735 2.777059,-3.141985 5.716682,-3.141985 6.114849,0 7.238951,4.026658 7.238951,9.256834 v 10.687939 z"
         id="path828"
         style="fill:#17e9cd;stroke-width:1.12088" />
    </g>
  </g>
</svg>
