<?xml version="1.0" encoding="UTF-8" standalone="no"?>
<!-- Created with Inkscape (http://www.inkscape.org/) -->

<svg
   width="32"
   height="32"
   viewBox="0 0 8.4666664 8.4666669"
   version="1.1"
   id="svg5"
   inkscape:version="1.1.2 (0a00cf5339, 2022-02-04)"
   sodipodi:docname="mysql.svg"
   xmlns:inkscape="http://www.inkscape.org/namespaces/inkscape"
   xmlns:sodipodi="http://sodipodi.sourceforge.net/DTD/sodipodi-0.dtd"
   xmlns="http://www.w3.org/2000/svg"
   xmlns:svg="http://www.w3.org/2000/svg">
  <sodipodi:namedview
     id="namedview7"
     pagecolor="#ffffff"
     bordercolor="#666666"
     borderopacity="1.0"
     inkscape:pageshadow="2"
     inkscape:pageopacity="0.0"
     inkscape:pagecheckerboard="0"
     inkscape:document-units="mm"
     showgrid="false"
     units="px"
     inkscape:showpageshadow="2"
     inkscape:deskcolor="#21222c"
     inkscape:zoom="14.75"
     inkscape:cx="7.0169492"
     inkscape:cy="12.474576"
     inkscape:window-width="1920"
     inkscape:window-height="1005"
     inkscape:window-x="0"
     inkscape:window-y="0"
     inkscape:window-maximized="1"
     inkscape:current-layer="layer1" />
  <defs
     id="defs2">
    <linearGradient
       id="paint0_linear_136_2"
       x1="20.4167"
       y1="52.575"
       x2="23.0854"
       y2="76.8729"
       gradientUnits="userSpaceOnUse"
       gradientTransform="matrix(0.26458333,0,0,0.26458333,-0.38302747,0.02774981)">
      <stop
         stop-color="#058F92"
         id="stop829" />
      <stop
         offset="0.5"
         stop-color="#038489"
         id="stop831" />
      <stop
         offset="1"
         stop-color="#026D71"
         id="stop833" />
    </linearGradient>
    <linearGradient
       id="paint1_linear_136_2"
       x1="71.3"
       y1="53.425"
       x2="73.1271"
       y2="73.3687"
       gradientUnits="userSpaceOnUse"
       gradientTransform="matrix(0.26458333,0,0,0.26458333,-0.38302747,0.02774981)">
      <stop
         stop-color="#FF9C0F"
         id="stop836" />
      <stop
         offset="0.813"
         stop-color="#D67E00"
         id="stop838" />
    </linearGradient>
    <linearGradient
       id="paint2_linear_136_2"
       x1="72.9771"
       y1="24.4083"
       x2="84.073"
       y2="55.7291"
       gradientUnits="userSpaceOnUse"
       gradientTransform="scale(0.26458335)">
      <stop
         stop-color="#058F92"
         id="stop841" />
      <stop
         offset="0.5"
         stop-color="#038489"
         id="stop843" />
      <stop
         offset="1"
         stop-color="#026D71"
         id="stop845" />
    </linearGradient>
  </defs>
  <g
     inkscape:label="Layer 1"
     inkscape:groupmode="layer"
     id="layer1">
    <g
       id="g871"
       transform="translate(0.38302747,-0.02774981)">
      <path
         d="M 1.0153125,7.3874358 H 1.2617561 V 6.478035 l 0.3423253,0.7774489 c 0.042227,0.096908 0.099987,0.1311819 0.2133263,0.1311819 0.1133394,0 0.1687891,-0.034274 0.2110172,-0.1311819 L 2.3707532,6.4979292 V 7.3874358 H 2.6171966 V 6.4558244 c 0,-0.089459 -0.035556,-0.1328454 -0.1089773,-0.1551793 C 2.3327578,6.2454541 2.2149271,6.293073 2.1616584,6.4125735 L 1.8106058,7.2032441 1.470591,6.4125735 C 1.4195052,6.2932024 1.2996209,6.2454541 1.12403,6.3006451 1.0506104,6.3229792 1.0150558,6.3662361 1.0150558,6.4557012 V 7.3873064 Z M 2.740289,6.6481056 h 0.2464431 v 0.5204823 c -0.00195,0.025673 0.00821,0.093827 0.1270725,0.095626 0.060584,0.00102 0.3620936,0 0.3658147,0 V 6.6481056 h 0.2464433 c 0.00102,0 0,0.7660263 0,0.7692363 0.00125,0.1889418 -0.2346389,0.2133273 -0.3430985,0.2165373 H 2.7404183 V 7.5106576 c 0.00128,0 0.6144392,1.293e-4 0.6162318,0 0.1396536,-0.014761 0.1230982,-0.091646 0.1230982,-0.115009 v -0.00821 H 3.0931404 C 2.878784,7.3855029 2.7420818,7.2910393 2.7405415,7.1833497 2.7402901,7.1733368 2.7451624,6.6527263 2.7402901,6.6481054 Z"
         fill="url(#paint0_linear_136_2)"
         id="path821"
         style="fill:url(#paint0_linear_136_2);stroke-width:0.264583" />
      <path
         d="m 3.8492842,7.3874358 h 0.6170082 c 0.080864,0 0.1594176,-0.016943 0.2217985,-0.046208 C 4.7920596,7.2934789 4.8349281,7.228917 4.8349281,7.1440729 V 6.9684821 c 0,-0.1894533 -0.2348913,-0.1971547 -0.3696648,-0.1971547 H 4.2188201 c -0.096908,0 -0.1116697,-0.058531 -0.1232216,-0.1232218 V 6.5248839 c 0.01155,-0.049289 0.033117,-0.1155202 0.1184713,-0.1232216 0.099224,0 0.6207294,0 0.6207294,0 V 6.2784406 H 4.2487255 c -0.096908,0 -0.3997,0.011552 -0.3997,0.2464433 v 0.1523574 c 0,0.1078191 0.094727,0.1956145 0.3003527,0.2171784 0.023107,0.00154 0.046206,0.00308 0.069188,0.00308 0,0 0.2395119,-0.00462 0.2464432,-0.00308 0.1386244,0 0.1232154,0.1078189 0.1232154,0.1232216 v 0.1232218 c 0,0.016943 -0.00383,0.1232217 -0.1246329,0.1232217 -0.00924,0 -0.6146976,0 -0.6146976,0 v 0.123351 z M 6.1903674,7.1357309 c 0,0.1487656 0.084074,0.2321927 0.3070315,0.2488832 0.020794,0.00142 0.041713,0.00269 0.062632,0.00269 h 0.616108 V 7.2640844 H 6.6068806 c -0.1272014,0 -0.17007,-0.053398 -0.17007,-0.1297649 V 6.2783111 H 6.1903674 Z m -1.2342689,0.00526 V 6.5248848 c 0,-0.1309229 0.064171,-0.2212877 0.2459259,-0.2464433 h 0.086261 0.4424395 0.067391 c 0.1817526,0.025156 0.2669786,0.1153909 0.2669786,0.2464433 V 7.138683 c 0,0.1061492 -0.027592,0.1631394 -0.1175718,0.2001059 L 6.1385163,7.5105291 H 5.8612667 L 5.7239238,7.3873073 H 5.562577 l -0.2741685,0.00154 c -0.039658,0 -0.081505,-0.00552 -0.1274538,-0.018103 C 5.0231,7.3331346 4.9560985,7.2607417 4.9560985,7.1409888 Z m 0.2464432,0 c 0.012581,0.059941 0.060709,0.1232215 0.1463254,0.1232215 H 5.5881212 L 5.451037,7.1409925 h 0.2791774 l 0.066617,0.06187 c 0,0 0.023873,-0.019512 0.023873,-0.06187 0,-0.042357 -0.00203,-0.6161086 -0.00203,-0.6161086 C 5.8060914,6.4691756 5.7496095,6.4016623 5.6661854,6.4016623 H 5.3490187 c -0.096143,0 -0.1463254,0.070341 -0.1463254,0.1358025 z"
         fill="url(#paint1_linear_136_2)"
         id="path823"
         style="fill:url(#paint1_linear_136_2);stroke-width:0.264583" />
    </g>
    <path
       d="m 6.5026891,4.4719609 c -0.2852777,-0.00774 -0.5030446,0.01882 -0.6892665,0.09713 -0.052846,0.022402 -0.137241,0.022965 -0.1461032,0.089372 0.029042,0.030439 0.033489,0.076091 0.05672,0.1134524 0.04427,0.071935 0.1195359,0.1685057 0.1864889,0.2188692 0.07333,0.055332 0.148882,0.114554 0.2271838,0.1624223 0.1394656,0.084951 0.2952385,0.1336409 0.4297173,0.2188692 0.079124,0.050089 0.1577249,0.1137327 0.2351923,0.1701786 0.038189,0.028221 0.063644,0.071654 0.1134546,0.089372 0,-0.00276 0,-0.00526 0,-0.00802 C 6.8900668,5.5904029 6.8831427,5.54474 6.8593562,5.5098773 6.8242154,5.4747344 6.7890769,5.4395893 6.7539189,5.4044594 6.650993,5.2677638 6.5198284,5.1473919 6.3809274,5.0477789 6.2699822,4.9680898 6.0217649,4.8604536 5.9752793,4.7315145 c -0.00269,-0.00276 -0.00522,-0.00526 -0.00826,-0.0083 0.078586,-0.00886 0.170724,-0.037361 0.2432276,-0.056726 0.1220128,-0.032645 0.2307702,-0.024066 0.3566679,-0.056726 0.05672,-0.01632 0.1134546,-0.032366 0.1701787,-0.048692 0,-0.010801 0,-0.021581 0,-0.032381 C 6.6734056,4.4633812 6.6277556,4.3770503 6.5585799,4.3178406 6.3767932,4.1631619 6.1786699,4.0087616 5.9747415,3.879823 5.8615692,3.8084346 5.7215531,3.7619473 5.6017384,3.7013429 5.5613425,3.6808755 5.4905065,3.6703571 5.4639411,3.6365949 5.4008539,3.5563592 5.3668258,3.4542507 5.318125,3.3609997 5.2162931,3.1650942 5.1161356,2.9509269 5.0262051,2.7447945 4.9644995,2.604221 4.924373,2.4653209 4.8477254,2.3391447 4.4794375,1.7337246 4.0829246,1.3681985 3.4692039,1.0090348 3.3385995,0.93266502 3.1811501,0.90250292 3.0148634,0.86293586 2.9254797,0.85767998 2.8363836,0.85215491 2.7470106,0.84661234 2.6924982,0.82364853 2.6360484,0.75723957 2.584585,0.72485883 2.3812024,0.59619855 1.8593512,0.31672517 1.7088169,0.68419012 1.613639,0.91606211 1.851044,1.1424089 1.935987,1.2600051 c 0.059481,0.082453 0.1358764,0.1748802 0.1784803,0.2678522 0.027947,0.06087 0.032916,0.1220194 0.05672,0.186489 0.058927,0.1588351 0.1521846,0.3397994 0.2285517,0.4867216 0.038459,0.074431 0.081077,0.1524606 0.12978,0.2188692 0.029885,0.040683 0.081077,0.058664 0.089367,0.1217542 C 2.568804,2.6116993 2.56604,2.7204368 2.537809,2.8095442 2.4110793,3.2093763 2.458937,3.7060593 2.6432295,4.0015771 c 0.05645,0.090754 0.1898216,0.2855567 0.373003,0.2108467 0.1602018,-0.065306 0.1245242,-0.2675731 0.1701656,-0.446053 0.010285,-0.04039 0.00388,-0.070008 0.024342,-0.097116 0,0.00276 0,0.00526 0,0.0083 0.0487,0.097116 0.097132,0.1947907 0.1461184,0.2919185 0.1081841,0.1740438 0.2999402,0.3558436 0.462083,0.4786997 0.084128,0.063634 0.1505333,0.1737636 0.2595509,0.2108467 0,-0.00276 0,-0.00526 0,-0.0083 -0.00269,0 -0.00522,0 -0.00826,0 -0.021019,-0.03294 -0.054226,-0.046484 -0.081077,-0.07305 C 3.9257807,4.5154058 3.8549624,4.438213 3.8026534,4.3668234 3.6549003,4.1662036 3.524296,3.9465108 3.4053051,3.7179458 3.3485857,3.6086512 3.2990595,3.4885707 3.2511841,3.3773361 3.232645,3.3344367 3.2329254,3.2696893 3.1944641,3.2475605 3.1418873,3.3289123 3.0649709,3.3947611 3.0242985,3.4907751 c -0.064754,0.1535774 -0.07333,0.3411809 -0.097132,0.5351467 -0.014314,0.00498 -0.00809,0.00166 -0.016341,0.00802 C 2.7979284,4.0065528 2.7580884,3.8906041 2.7160383,3.7907257 2.6097928,3.5383735 2.5901339,3.1321656 2.683661,2.8419072 2.7077335,2.7666393 2.8170278,2.5300656 2.7730273,2.4606161 2.7520038,2.3911664 2.6822796,2.3510418 2.6435346,2.2981953 2.5951033,2.2328898 2.5472449,2.1465575 2.5137557,2.0710116 2.4268828,1.8742829 2.3444149,1.6454523 2.2528368,1.4465057 2.2091225,1.3513159 2.1352207,1.2553022 2.0743571,1.1709103 2.0071094,1.0773798 1.9315735,1.0084742 1.8795542,0.89531461 1.8610148,0.85518977 1.8358401,0.79072232 1.8632136,0.74921566 c 0.00893,-0.0279573 0.021018,-0.0395795 0.048701,-0.048705 0.047034,-0.0365248 0.1779198,0.0118992 0.2271703,0.0323664 0.1300473,0.0539631 0.2385124,0.10543058 0.3486442,0.17848039 0.052844,0.0351424 0.106246,0.10293495 0.1701787,0.12175405 0.024342,0 0.048684,0 0.073043,0 0.1142802,0.026285 0.2421122,0.0083 0.3486324,0.040669 0.1887179,0.057284 0.3575035,0.1463771 0.5108004,0.2432279 0.4676218,0.2952391 0.8497501,0.7152732 1.1112268,1.2166578 0.042063,0.080791 0.060324,0.1577205 0.097132,0.2432144 0.07471,0.172662 0.169062,0.350305 0.2432142,0.5191019 0.07417,0.1685058 0.1466573,0.3384049 0.251529,0.4786864 0.055338,0.073608 0.2683968,0.1131722 0.3649677,0.1541205 0.067787,0.028783 0.1790236,0.058386 0.2432277,0.097129 0.1228556,0.074151 0.2418345,0.1624223 0.3566679,0.2432147 0.058656,0.040681 0.2354719,0.1294976 0.2443309,0.2028251 z"
       fill="url(#paint2_linear_136_2)"
       id="path825"
       style="fill:url(#paint2_linear_136_2);stroke-width:0.264583" />
    <path
       d="m 5.2323174,3.0507631 c -0.027592,-5.124e-4 -0.047105,0.00295 -0.067774,0.00757 0,0.00128 0,0.00244 0,0.00385 0.00125,0 0.00242,0 0.00383,0 0.013222,0.026955 0.036329,0.044538 0.052629,0.067772 0.012581,0.026314 0.025029,0.052628 0.03761,0.078942 0.00125,-0.00129 0.00242,-0.00244 0.00375,-0.00373 0.023224,-0.016426 0.034008,-0.04261 0.033883,-0.082787 -0.00937,-0.00988 -0.010784,-0.022204 -0.018872,-0.033886 -0.010784,-0.015791 -0.031578,-0.024645 -0.045057,-0.037737 z"
       fill="#00796b"
       id="path827"
       style="stroke-width:0.264583" />
  </g>
</svg>
