<?xml version="1.0" encoding="UTF-8" standalone="no"?>
<svg
   viewBox="0 0 100 100"
   fill="none"
   version="1.1"
   id="svg13"
   sodipodi:docname="react.svg"
   inkscape:version="1.1.2 (0a00cf5339, 2022-02-04)"
   xmlns:inkscape="http://www.inkscape.org/namespaces/inkscape"
   xmlns:sodipodi="http://sodipodi.sourceforge.net/DTD/sodipodi-0.dtd"
   xmlns="http://www.w3.org/2000/svg"
   xmlns:svg="http://www.w3.org/2000/svg">
  <sodipodi:namedview
     id="namedview15"
     pagecolor="#ffffff"
     bordercolor="#666666"
     borderopacity="1.0"
     inkscape:pageshadow="2"
     inkscape:pageopacity="0.0"
     inkscape:pagecheckerboard="0"
     showgrid="false"
     inkscape:zoom="6.46"
     inkscape:cx="50.077399"
     inkscape:cy="50"
     inkscape:window-width="1920"
     inkscape:window-height="1005"
     inkscape:window-x="0"
     inkscape:window-y="0"
     inkscape:window-maximized="1"
     inkscape:current-layer="svg13" />
  <g
     id="React"
     clip-path="url(#clip0_29_154)"
     inkscape:export-filename="/home/daniel/Server/DanielRiosDev/public/images/react.png"
     inkscape:export-xdpi="329.88199"
     inkscape:export-ydpi="329.88199">
    <path
       id="Vector"
       d="M58.3333 50C58.3333 54.6067 54.6067 58.3333 50 58.3333C45.3933 58.3333 41.6667 54.6067 41.6667 50C41.6667 45.3933 45.3933 41.6667 50 41.6667C54.6067 41.6667 58.3333 45.3933 58.3333 50Z"
       fill="#8BB7F0" />
    <path
       id="Vector_2"
       d="M50 60C44.4867 60 40 55.5133 40 50C40 44.4867 44.4867 40 50 40C55.5133 40 60 44.4867 60 50C60 55.5133 55.5133 60 50 60ZM50 43.3333C46.3233 43.3333 43.3333 46.3233 43.3333 50C43.3333 53.6767 46.3233 56.6667 50 56.6667C53.6767 56.6667 56.6667 53.6767 56.6667 50C56.6667 46.3233 53.6767 43.3333 50 43.3333Z"
       fill="#4E7AB5" />
    <g
       id="Group">
      <path
         id="Vector_3"
         d="M98.3333 50C98.3333 42.8267 91.35 36.69 80.15 32.78C82.6433 20.77 83.0733 11.6567 74.5233 6.59333C72.74 5.54 70.7067 5.00333 68.4833 5.00333C62.9933 5.00333 56.52 8.34333 50.0033 14.1567C43.4833 8.33667 37.0067 4.99333 31.5133 4.99333C29.29 4.99333 27.26 5.53 25.4767 6.58333C20.06 9.79667 16.57 16.9733 19.85 32.78C8.64999 36.6933 1.66666 42.8267 1.66666 50C1.66666 57.1733 8.64999 63.3067 19.85 67.22C17.2533 79.7367 17.4367 88.6467 25.48 93.4167C27.2633 94.47 29.2967 95.0067 31.52 95.0067C37.01 95.0067 43.4867 91.6667 50.0033 85.8467C56.52 91.66 62.9933 94.9967 68.4833 94.9967C70.7067 94.9967 72.74 94.46 74.5267 93.4067C82.4933 88.6867 82.8267 80.0933 80.1533 67.22C91.35 63.31 98.3333 57.1733 98.3333 50ZM71.1233 12.33C76.1667 15.3167 75.54 21.27 73.68 30.8733C70.34 30.0667 66.7233 29.4467 62.91 29.0067C60.2867 25.2633 57.56 21.8633 54.7933 18.8833C60.1867 14.15 65.08 11.6733 68.4833 11.6733C69.5133 11.67 70.3733 11.8867 71.1233 12.33ZM70.6667 58.2467C71.19 59.7233 71.6467 61.16 72.0633 62.5733C70.6767 62.9133 69.2333 63.2233 67.7366 63.5C68.1867 62.7433 68.64 61.9933 69.0767 61.2133C69.62 60.2367 70.1433 59.24 70.6667 58.2467ZM63.2633 57.94C61.92 60.3267 60.5367 62.55 59.1433 64.6667C56.2167 64.9267 53.1667 65.0767 50 65.0767C46.8267 65.0767 43.7667 64.9267 40.8367 64.6667C39.4433 62.5567 38.07 60.3167 36.73 57.94C35.2233 55.2633 33.8767 52.6067 32.6767 50C33.8733 47.3933 35.2233 44.7367 36.73 42.06C38.07 39.6833 39.4433 37.4433 40.84 35.3333C43.7733 35.0733 46.83 34.9233 50.0033 34.9233C53.1767 34.9233 56.23 35.0733 59.1633 35.3333C60.5567 37.4433 61.93 39.6833 63.27 42.06C64.7767 44.7367 66.1267 47.3933 67.3233 50C66.12 52.6067 64.77 55.2633 63.2633 57.94ZM50.0033 76.4533C48.6433 74.9867 47.2733 73.38 45.9 71.6567C47.2533 71.7033 48.61 71.7433 50 71.7433C51.39 71.7433 52.75 71.7033 54.1033 71.6567C52.73 73.3867 51.3633 74.9867 50.0033 76.4533ZM30.92 61.21C31.3567 61.9867 31.81 62.7367 32.26 63.4933C30.7633 63.2167 29.3233 62.9067 27.9367 62.5667C28.3533 61.1567 28.81 59.72 29.33 58.2433C29.8533 59.2433 30.3733 60.2367 30.92 61.21ZM29.33 41.7533C28.81 40.28 28.3533 38.8433 27.9367 37.43C29.3233 37.0933 30.7633 36.7833 32.2633 36.5033C31.8133 37.26 31.36 38.01 30.9233 38.7867C30.3733 39.7633 29.8533 40.7567 29.33 41.7533ZM50.0033 23.5533C51.36 25.0167 52.73 26.6233 54.0967 28.3467C52.7433 28.2967 51.3867 28.2567 50 28.2567C48.6133 28.2567 47.2567 28.2967 45.9033 28.3433C47.2733 26.62 48.6433 25.0167 50.0033 23.5533ZM69.0733 38.79C68.6367 38.01 68.1833 37.2633 67.7333 36.5033C69.2333 36.78 70.6733 37.09 72.0633 37.43C71.6467 38.8433 71.19 40.28 70.6667 41.7567C70.1433 40.76 69.62 39.7633 69.0733 38.79ZM28.8767 12.32C29.6267 11.8767 30.4867 11.66 31.5133 11.66C34.92 11.66 39.8167 14.14 45.2133 18.8767C42.4467 21.8567 39.7167 25.2567 37.09 29.0033C33.2767 29.4467 29.66 30.0667 26.32 30.8733C23.7167 17.44 26.92 13.4833 28.8767 12.32ZM8.33332 50C8.33332 46.24 13.3367 42.26 21.5367 39.3267C22.5867 42.85 23.89 46.4333 25.4133 50C23.8933 53.5667 22.59 57.15 21.5367 60.6733C13.3367 57.74 8.33332 53.76 8.33332 50ZM28.8767 87.68C24.3333 84.9867 24.36 79.2433 26.32 69.1267C29.66 69.9333 33.2733 70.5533 37.0867 70.9933C39.7167 74.7467 42.4533 78.1533 45.2267 81.14C38.2467 87.27 32.1 89.59 28.8767 87.68ZM71.1233 87.67C70.3733 88.1133 69.5133 88.33 68.4833 88.33C65.0767 88.33 60.1833 85.8533 54.79 81.1233C57.5567 78.1433 60.2833 74.7433 62.91 70.9967C66.7233 70.5533 70.34 69.9367 73.68 69.13C75.7067 79.6033 75.5933 85.0233 71.1233 87.67ZM78.46 60.6733C77.4067 57.1533 76.1033 53.5667 74.5833 50C76.1067 46.4333 77.41 42.8467 78.4633 39.3267C86.6633 42.26 91.6667 46.24 91.6667 50C91.6667 53.76 86.6633 57.74 78.46 60.6733Z"
         fill="#8BB7F0" />
      <path
         id="Vector_4"
         d="M31.5167 96.67C28.99 96.67 26.6767 96.0567 24.63 94.8467C16.7633 90.1833 15.38 82.0767 17.94 68.2967C6.51667 63.9933 0 57.3733 0 50C0 42.6267 6.51667 36.0067 17.94 31.7C14.76 14.59 19.3233 8.29667 24.63 5.15C31.11 1.31333 40.3267 3.70333 50.0033 11.9433C59.6733 3.71 68.8733 1.32 75.37 5.15667C83.7367 10.11 84.5267 18.43 82.06 31.6967C93.4833 36.0067 100 42.63 100 50C100 57.37 93.4833 63.9933 82.0567 68.3C84.6867 82.4433 83.17 90.2233 75.37 94.84C68.8733 98.6767 59.6733 96.2867 50 88.0567C43.3767 93.6967 37.01 96.67 31.5167 96.67ZM31.5133 6.66333C29.5933 6.66333 27.8467 7.12 26.3267 8.02C20.1867 11.66 19.1767 21.3433 21.48 32.44L21.78 33.87L20.4 34.3533C9.55333 38.14 3.33333 43.8433 3.33333 50C3.33333 56.1567 9.55333 61.86 20.4 65.6467L21.78 66.13L21.48 67.56C19.86 75.3667 17.5633 86.7867 26.3267 91.9833C31.7333 95.18 40.1067 92.45 48.89 84.6067L50 83.6133L51.11 84.6033C59.8967 92.44 68.2667 95.1633 73.6733 91.9733C82.36 86.8267 80.2133 75.7233 78.5167 67.56L78.2167 66.13L79.5967 65.6467C90.4467 61.86 96.6667 56.1567 96.6667 50C96.6667 43.8433 90.4467 38.14 79.6 34.3533L78.22 33.87L78.52 32.44C80.0367 25.1433 82.9467 13.5167 73.6733 8.02667C68.27 4.83 59.8967 7.56 51.1133 15.4L50.0033 16.39L48.8933 15.4C42.58 9.76666 36.41 6.66333 31.5133 6.66333ZM31.5167 89.9967C30.1933 89.9967 29.0167 89.7 28.0267 89.1133C22.7933 86.01 22.5367 79.9 24.68 68.81L25.0133 67.0967L26.71 67.5067C29.9133 68.28 33.4667 68.8967 37.2767 69.3367L38.02 69.4233L38.45 70.0367C41.0333 73.72 43.7267 77.0733 46.4467 80.0033L47.6133 81.2567L46.3267 82.3867C40.7433 87.2967 35.4833 89.9967 31.5167 89.9967ZM27.65 71.1433C26.0233 81.0933 26.66 84.4267 29.7267 86.2467C30.1967 86.5233 30.7967 86.6633 31.5167 86.6633C34.3533 86.6633 38.42 84.61 42.8333 80.9867C40.56 78.4333 38.32 75.61 36.15 72.5633C33.1467 72.1933 30.3 71.7167 27.65 71.1433ZM68.4833 89.9967C64.5467 89.9967 59.2933 87.29 53.69 82.3767L52.4033 81.2467L53.5667 79.99C56.2867 77.0567 58.97 73.71 61.5467 70.04L61.9767 69.4267L62.72 69.34C66.5333 68.8967 70.09 68.28 73.29 67.5067L74.9867 67.0967L75.32 68.81C77.5367 80.26 77.1367 86.0467 71.9767 89.1033C70.9567 89.7067 69.8167 89.9967 68.4833 89.9967ZM57.1833 80.97C62.7567 85.55 67.8867 87.6533 70.2733 86.24C73.28 84.46 74.0333 81.46 72.3467 71.1467C69.6967 71.72 66.85 72.1967 63.8433 72.5667C61.6833 75.6 59.45 78.4167 57.1833 80.97ZM50.0033 78.9033L48.7833 77.5867C47.42 76.1167 46.01 74.47 44.5967 72.6933L42.3533 69.87L45.9567 69.9933C48.6267 70.08 51.38 70.0833 54.0433 69.9933L57.6433 69.8667L55.4067 72.6933C54.03 74.4367 52.6233 76.0833 51.2267 77.59L50.0033 78.9033ZM50 66.7433C46.9267 66.7433 43.7967 66.6033 40.6867 66.3267L39.89 66.2567L39.4467 65.5867C37.98 63.3633 36.5767 61.07 35.2767 58.76C33.7967 56.13 32.4133 53.42 31.1633 50.7L30.8433 50L31.1633 49.3067C32.4133 46.5867 33.7967 43.8733 35.2767 41.2433C36.57 38.9467 37.9733 36.65 39.4467 34.42L39.89 33.75L40.6867 33.68C46.8933 33.1267 53.0733 33.1233 59.3067 33.68L60.1067 33.75L60.55 34.42C62.01 36.6333 63.4133 38.9333 64.7167 41.2467C66.1967 43.8767 67.58 46.5867 68.83 49.3067L69.15 50L68.83 50.6933C67.58 53.4133 66.1967 56.1267 64.7167 58.7567C63.4533 60.9967 62.0867 63.23 60.5333 65.5833L60.09 66.2533L59.29 66.3233C56.1967 66.6033 53.07 66.7433 50 66.7433ZM41.7867 63.0733C47.2733 63.52 52.7233 63.52 58.1933 63.0767C59.52 61.0367 60.71 59.08 61.8133 57.1233C63.1233 54.7967 64.3567 52.4033 65.4833 50C64.3567 47.5967 63.1233 45.2033 61.8133 42.88C60.68 40.8667 59.47 38.8667 58.21 36.9267C52.7033 36.48 47.27 36.48 41.7867 36.9267C40.5167 38.88 39.3067 40.88 38.18 42.8767C36.87 45.2033 35.6367 47.5967 34.51 50C35.6367 52.4033 36.87 54.7967 38.18 57.12C39.31 59.1267 40.52 61.1267 41.7867 63.0733ZM35.55 65.8033L31.9533 65.1367C30.4267 64.8533 28.96 64.5367 27.5433 64.19L25.8433 63.7733L26.3367 62.0967C26.76 60.6567 27.2267 59.1933 27.7567 57.69L29.03 54.0833L30.8067 57.4733C31.3167 58.4533 31.8367 59.4333 32.3733 60.3933C32.68 60.9333 32.9933 61.4633 33.3033 61.99L35.55 65.8033ZM64.4233 65.8L66.5633 62.2C66.9167 61.6 67.2733 61.0033 67.62 60.39C68.15 59.45 68.6533 58.4933 69.1533 57.5333L70.9233 54.1533L72.2333 57.6867C72.77 59.1933 73.2367 60.66 73.66 62.0967L74.1533 63.7733L72.4533 64.19C71.0367 64.5367 69.5667 64.8533 68.0333 65.1367L64.4233 65.8ZM77.3667 62.8367L76.8633 61.1533C75.84 57.7233 74.56 54.19 73.05 50.6567L72.77 50L73.05 49.3467C74.5433 45.8533 75.8267 42.32 76.87 38.85L77.37 37.17L79.0233 37.76C88.12 41.01 93.3333 45.47 93.3333 50C93.3333 54.5267 88.1167 58.99 79.02 62.2433L77.3667 62.8367ZM76.3933 50C77.5833 52.85 78.6367 55.6967 79.53 58.49C87.22 55.4467 90 52.0633 90 50C90 47.9367 87.22 44.5533 79.53 41.51C78.63 44.33 77.5767 47.1767 76.3933 50ZM22.63 62.8333L20.9767 62.24C11.88 58.99 6.66667 54.53 6.66667 50C6.66667 45.47 11.88 41.01 20.9767 37.76L22.63 37.1667L23.1333 38.85C24.1667 42.31 25.4467 45.84 26.9467 49.3433L27.2267 50L26.9467 50.6533C25.45 54.16 24.1667 57.69 23.1333 61.1467L22.63 62.8333ZM20.4667 41.51C12.78 44.5533 10 47.9367 10 50C10 52.0633 12.78 55.4467 20.4667 58.49C21.3633 55.6767 22.4167 52.8333 23.6033 50C22.4167 47.1667 21.3633 44.3233 20.4667 41.51ZM29.03 45.9133L27.7567 42.3067C27.2267 40.8033 26.76 39.34 26.3367 37.9L25.8433 36.2233L27.5433 35.8067C28.96 35.46 30.4267 35.1467 31.96 34.86L35.5667 34.19L33.3867 37.8733C33.0433 38.4433 32.7067 39.0133 32.3733 39.6033C31.8367 40.56 31.32 41.54 30.8067 42.52L29.03 45.9133ZM70.9567 45.9067L69.1867 42.5267C68.6533 41.5067 68.15 40.5467 67.62 39.6067C67.2733 38.9933 66.9167 38.3967 66.5633 37.7967L64.4233 34.1967L68.0333 34.8633C69.5667 35.1467 71.0367 35.4633 72.4533 35.81L74.1533 36.2267L73.66 37.9033C73.2367 39.3433 72.77 40.81 72.2333 42.3133L70.9567 45.9067ZM25.0133 32.9033L24.68 31.19C21.8967 16.7833 25.3733 12.46 28.0267 10.8867C32.0533 8.51 38.81 11.0433 46.31 17.6267L47.5967 18.7567L46.43 20.0133C43.7167 22.9367 41.03 26.2867 38.45 29.9633L38.02 30.5767L37.2767 30.6633C33.4633 31.1033 29.91 31.72 26.7033 32.4933L25.0133 32.9033ZM31.5133 13.33C30.7867 13.33 30.2167 13.4667 29.7267 13.7567C29.15 14.0967 25.47 15.54 27.65 28.8567C30.3033 28.28 33.1533 27.8067 36.1567 27.4367C38.3167 24.3967 40.5533 21.58 42.82 19.0333C38.4333 15.4367 34.28 13.33 31.5133 13.33ZM74.9833 32.9033L73.2867 32.4933C70.0867 31.72 66.53 31.1033 62.7167 30.66L61.9733 30.5733L61.5433 29.96C58.9567 26.2733 56.2733 22.9267 53.5667 20.0133L52.3967 18.7567L53.6867 17.6267C61.19 11.0433 67.95 8.52 71.9667 10.8933C77.7033 14.29 77.36 20.61 75.31 31.1867L74.9833 32.9033ZM63.8433 27.4367C66.8467 27.8067 69.6967 28.2833 72.3467 28.8567C73.8933 19.4333 73.83 15.8667 70.2733 13.7633C67.8833 12.35 62.76 14.4533 57.1833 19.0367C59.4433 21.5733 61.6767 24.39 63.8433 27.4367ZM42.3533 30.13L44.6 27.3033C46.03 25.51 47.4367 23.8667 48.7833 22.4167L50.0067 21.0967L51.2267 22.4167C52.6067 23.91 54.01 25.5533 55.4 27.3033L57.6433 30.1267L54.04 30.0033C51.37 29.9167 48.63 29.9167 45.96 30.0033L42.3533 30.13Z"
         fill="#4E7AB5" />
    </g>
  </g>
  <defs
     id="defs11">
    <clipPath
       id="clip0_29_154">
      <rect
         width="100"
         height="100"
         fill="white"
         id="rect8" />
    </clipPath>
  </defs>
</svg>
