<?xml version="1.0" encoding="UTF-8" standalone="no"?>
<svg
   viewBox="0 0 100 100"
   fill="none"
   version="1.1"
   id="svg7"
   sodipodi:docname="sass.svg"
   inkscape:version="1.1.2 (0a00cf5339, 2022-02-04)"
   inkscape:export-filename="/home/daniel/Server/DanielRiosDev/public/images/svelte.png"
   inkscape:export-xdpi="329.88199"
   inkscape:export-ydpi="329.88199"
   xmlns:inkscape="http://www.inkscape.org/namespaces/inkscape"
   xmlns:sodipodi="http://sodipodi.sourceforge.net/DTD/sodipodi-0.dtd"
   xmlns="http://www.w3.org/2000/svg"
   xmlns:svg="http://www.w3.org/2000/svg">
  <defs
     id="defs11" />
  <sodipodi:namedview
     id="namedview9"
     pagecolor="#ffffff"
     bordercolor="#666666"
     borderopacity="1.0"
     inkscape:pageshadow="2"
     inkscape:pageopacity="0.0"
     inkscape:pagecheckerboard="0"
     showgrid="false"
     inkscape:zoom="6.46"
     inkscape:cx="49.845201"
     inkscape:cy="50"
     inkscape:window-width="1920"
     inkscape:window-height="1005"
     inkscape:window-x="0"
     inkscape:window-y="0"
     inkscape:window-maximized="1"
     inkscape:current-layer="svg7" />
  <g
     id="Sass Avatar"
     transform="matrix(1.5358149,0,0,1.5358149,0.76788773,0.87441949)"
     style="stroke-width:0.65112">
    <path
       id="Vector"
       fill-rule="evenodd"
       clip-rule="evenodd"
       d="m 32.056,5.37601 c 14.6973,0 26.6107,11.91329 26.6107,26.61069 0,14.696 -11.9134,26.6106 -26.6107,26.6106 C 17.36,58.5973 5.44534,46.684 5.44534,31.9867 5.44668,17.2893 17.36,5.37601 32.056,5.37601 Z"
       fill="#f06292"
       style="stroke-width:0.389238" />
    <path
       id="Vector_2"
       d="m 48.748,16.7653 c -1.2053,-4.7266 -9.0413,-6.28 -16.4573,-3.6453 -4.4134,1.568 -9.192,4.0293 -12.628,7.2427 -4.0854,3.8213 -4.736,7.1466 -4.468,8.536 0.9466,4.9026 7.6653,8.108 10.4266,10.4866 V 39.4 c -0.8146,0.4013 -6.7746,3.4173 -8.1693,6.5013 -1.472,3.2534 0.2347,5.588 1.364,5.9027 3.5,0.9733 7.0907,-0.7773 9.0213,-3.656 1.8627,-2.7787 1.708,-6.3653 0.8987,-8.1507 1.116,-0.2946 2.4187,-0.4266 4.072,-0.2333 4.668,0.5453 5.584,3.46 5.408,4.68 -0.1747,1.22 -1.1547,1.8907 -1.4813,2.0933 -0.328,0.2027 -0.4267,0.2734 -0.4,0.4227 0.04,0.2187 0.1906,0.2107 0.4706,0.164 0.384,-0.0653 2.4507,-0.992 2.54,-3.244 0.112,-2.8587 -2.6266,-6.056 -7.4773,-5.9733 -1.9973,0.0346 -3.2533,0.224 -4.1613,0.5626 -0.0667,-0.076 -0.136,-0.152 -0.2054,-0.228 -2.9986,-3.2 -8.5426,-5.4626 -8.308,-9.764 0.0854,-1.564 0.6294,-5.6813 10.652,-10.676 8.2107,-4.092 14.784,-2.9653 15.92,-0.4706 1.6227,3.5653 -3.5133,10.1906 -12.04,11.1466 -3.2493,0.364 -4.96,-0.8946 -5.3853,-1.364 -0.448,-0.4933 -0.5147,-0.516 -0.6813,-0.4226 -0.272,0.1506 -0.1,0.5866 0,0.8466 0.2546,0.6627 1.3,1.8374 3.08,2.4227 1.5666,0.5147 5.3813,0.796 9.9946,-0.988 5.1654,-2 9.2,-7.56 8.0147,-12.2067 z m -21.98,24.0854 c 0.3867,1.432 0.344,2.768 -0.0547,3.9773 -0.044,0.1347 -0.0933,0.2667 -0.1466,0.3987 -0.0534,0.1306 -0.1107,0.2613 -0.172,0.3893 -0.308,0.64 -0.7227,1.2387 -1.2294,1.792 -1.5466,1.6867 -3.7066,2.324 -4.632,1.7867 -1,-0.58 -0.4986,-2.9574 1.2934,-4.8534 1.928,-2.0386 4.7026,-3.3493 4.7026,-3.3493 l -0.004,-0.008 c 0.08,-0.044 0.1614,-0.088 0.2427,-0.1333 z"
       fill="#ffffff"
       style="stroke-width:0.389238" />
  </g>
</svg>
