<?xml version="1.0" encoding="UTF-8" standalone="no"?>
<svg
   width="100"
   height="100"
   viewBox="0 0 100 100"
   fill="none"
   version="1.1"
   id="svg7"
   sodipodi:docname="svelte.svg"
   inkscape:version="1.1.2 (0a00cf5339, 2022-02-04)"
   inkscape:export-filename="/home/daniel/Server/DanielRiosDev/public/images/svelte.png"
   inkscape:export-xdpi="329.88199"
   inkscape:export-ydpi="329.88199"
   xmlns:inkscape="http://www.inkscape.org/namespaces/inkscape"
   xmlns:sodipodi="http://sodipodi.sourceforge.net/DTD/sodipodi-0.dtd"
   xmlns="http://www.w3.org/2000/svg"
   xmlns:svg="http://www.w3.org/2000/svg">
  <defs
     id="defs11" />
  <sodipodi:namedview
     id="namedview9"
     pagecolor="#ffffff"
     bordercolor="#666666"
     borderopacity="1.0"
     inkscape:pageshadow="2"
     inkscape:pageopacity="0.0"
     inkscape:pagecheckerboard="0"
     showgrid="false"
     inkscape:zoom="6.46"
     inkscape:cx="50.077399"
     inkscape:cy="50"
     inkscape:window-width="1920"
     inkscape:window-height="1005"
     inkscape:window-x="0"
     inkscape:window-y="0"
     inkscape:window-maximized="1"
     inkscape:current-layer="svg7" />
  <g
     id="Svelte"
     inkscape:export-filename="/home/daniel/Server/DanielRiosDev/public/images/svelte.png"
     inkscape:export-xdpi="329.88199"
     inkscape:export-ydpi="329.88199">
    <path
       id="Vector"
       d="M83.9812 18.125C75.7333 6.24582 57.5 1.34791 45.6958 8.83957L24.8896 22.1562C19.2146 25.7125 15.2813 31.5375 14.1458 38.1208C13.1625 43.6437 16.2104 48.2208 18.8583 53.1375C17.0417 55.8604 13.6167 59.9854 13.0875 63.1646C11.8771 69.8979 13.4667 76.8583 17.4 82.3833C25.7229 94.2625 42.2208 98.5104 54.0229 91.0208L74.675 77.0125C80.35 73.4562 84.2833 67.6312 85.4187 61.0479C86.4021 55.525 85.5708 49.85 82.9229 44.9312C84.7396 42.2083 85.95 39.1812 86.4792 36.0042C87.7646 29.1917 87.9896 23.6479 83.9812 18.125Z"
       fill="#EF4823" />
    <path
       id="Vector_2"
       d="M40.9167 95.7208C38.7 95.7208 36.4396 95.45 34.1792 94.9021C27.0438 93.1708 20.8042 88.9208 16.6104 82.9354C12.5229 77.1979 10.8917 69.9271 12.1375 62.9937C12.5875 60.2917 14.8792 57.0833 16.7229 54.5062C17.0813 54.0062 17.4229 53.5271 17.7313 53.0812C17.5208 52.6958 17.3083 52.3104 17.0979 51.9292C14.7229 47.6271 12.2667 43.1792 13.1979 37.9521C14.3771 31.1104 18.4542 25.0521 24.3792 21.3396L45.1792 8.02708C57.1542 0.427076 76.0208 4.97499 84.7687 17.5667C88.8458 23.1875 88.8104 28.8542 87.4292 36.1708C86.9062 39.2979 85.7667 42.2583 84.0396 44.9833C86.5354 49.8937 87.3646 55.6333 86.3708 61.2167C85.1917 68.0521 81.1229 74.1062 75.2042 77.8187L54.5667 91.8187C54.5583 91.825 54.55 91.8292 54.5417 91.8354C50.4917 94.4042 45.8062 95.7208 40.9167 95.7208ZM58.7875 6.22083C54.2729 6.22083 49.8937 7.31874 46.2167 9.65208L25.4125 22.9667C19.9438 26.3937 16.1854 31.975 15.0979 38.2833C14.2854 42.8437 16.4729 46.8042 18.7854 50.9958C19.0938 51.5542 19.4042 52.1146 19.7083 52.6812C19.8771 52.9958 19.8583 53.3771 19.6625 53.6729C19.2625 54.2729 18.7917 54.9312 18.2938 55.6292C16.5667 58.0437 14.4188 61.05 14.0396 63.3229C12.8813 69.7604 14.3938 76.5 18.1875 81.8229C26.4229 93.5771 42.2563 97.3354 53.4958 90.2125L74.1354 76.2125C74.1458 76.2062 74.1542 76.2 74.1646 76.1937C79.6271 72.7708 83.3833 67.1896 84.4708 60.8833C85.425 55.5292 84.5729 50.0271 82.075 45.3875C81.9062 45.0729 81.925 44.6917 82.1208 44.3958C83.875 41.7646 85.0208 38.8875 85.5292 35.8437C85.5312 35.8375 85.5312 35.8292 85.5333 35.8229C86.8542 28.825 86.8979 23.7792 83.2021 18.6917C83.1979 18.6854 83.1937 18.6812 83.1896 18.675C77.6979 10.7625 67.9667 6.22083 58.7875 6.22083Z"
       fill="#010101" />
    <path
       id="Vector_3"
       d="M43.6958 83.5167C36.9625 85.2562 29.925 82.6083 25.9917 76.9333C23.5708 73.6042 22.6625 69.4437 23.3437 65.3562C23.4958 64.675 23.6458 64.0708 23.7979 63.3896L24.3312 61.4354L25.3896 62.1917C27.8854 64.0083 30.4562 66.1125 33.4062 67.0208L34.1625 67.2479L34.0875 68.0042C34.0125 69.0625 34.3146 70.1979 34.9187 71.1062C36.1292 72.8458 39.2646 73.8146 41.3083 73.2854C41.7625 73.1333 42.2167 72.9833 42.5937 72.7562L63.8229 59.8771C64.8812 59.1958 65.0042 57.3646 65.2312 56.1542C65.4583 54.9437 65.1562 53.6583 64.475 52.6729C63.2646 50.9333 61.1458 50.1771 59.1021 50.7062C58.6479 50.8583 57.2375 51.3583 56.8583 51.5854L48.9146 56.6542C47.6292 57.4854 46.1917 58.0917 44.6771 58.4708C37.9437 60.2104 30.9062 57.5625 26.9729 51.8875C24.6271 48.5583 23.7833 42.9083 24.5396 38.8229C25.2208 34.8875 27.6417 31.3333 31.0458 29.2146L51.7125 17.4625C52.9979 16.6312 54.4354 16.025 55.95 15.5708C62.6833 13.8312 69.7208 16.4792 73.6542 22.1542C76.075 25.4833 76.9833 29.6437 76.3021 33.7312C76.15 34.4125 76 35.0167 75.7729 35.6979L75.7021 35.9208C75.55 36.4083 74.9667 36.6021 74.5521 36.3062L74.3333 36.15C71.8375 34.3333 69.1125 32.9729 66.1625 32.0646L65.4062 31.8375L65.4812 31.0812C65.5562 30.0229 65.2542 28.8875 64.65 27.9792C63.4396 26.2396 61.1333 25.6417 59.0917 26.1708C58.6375 26.3229 58.1833 26.4729 57.8062 26.7L37.2625 39.7812C36.2042 40.4625 35.5229 41.4458 35.2958 42.6562C35.0687 43.8667 35.3708 45.1521 36.0521 46.1375C37.2625 47.8771 39.3812 48.6333 41.425 48.1042C41.8792 47.9521 42.3333 47.8021 42.7104 47.575L50.6542 42.5062C51.9396 41.675 53.3771 41.0687 54.8917 40.6146C61.625 38.875 69.4458 39.4625 73.3812 45.1375C75.8021 48.4667 77.4 54.0062 76.7187 58.0917C76.0375 62.0271 73.6167 65.5812 70.2125 67.7L47.9312 81.625C46.6458 82.4583 45.2083 83.0625 43.6958 83.5167Z"
       fill="#D6E5E5" />
    <path
       id="Vector_4"
       d="M39.5438 85.0125C37.4792 85.0125 35.425 84.6437 33.4583 83.9104C30.1063 82.6604 27.2521 80.4417 25.2063 77.4937C22.6563 73.9833 21.6563 69.6167 22.3938 65.2C22.3958 65.1833 22.4 65.1667 22.4042 65.15C22.4813 64.8062 22.5563 64.4792 22.6333 64.1542C22.7083 63.8375 22.7833 63.5187 22.8583 63.1812C22.8625 63.1667 22.8646 63.1521 22.8688 63.1375L23.4021 61.1833C23.4854 60.8792 23.7125 60.6354 24.0083 60.5292C24.3063 60.4229 24.6354 60.4688 24.8917 60.6521L25.95 61.4083C26.3042 61.6646 26.65 61.9229 27.0021 62.1812C29.1167 63.7479 31.3042 65.3667 33.6896 66.1L34.4396 66.325C34.8813 66.4583 35.1688 66.8854 35.1229 67.3437L35.0479 68.0854C34.9917 68.925 35.2417 69.8521 35.7208 70.5708C36.6354 71.8833 39.3125 72.7875 41.0354 72.3583C41.4396 72.2229 41.8188 72.0958 42.0979 71.9271L52.0938 64.9312L63.3104 59.0604C63.8375 58.7104 64.0354 57.4896 64.1792 56.5979C64.2146 56.3792 64.2479 56.1708 64.2854 55.9771C64.4604 55.0479 64.2354 54.0187 63.6833 53.2229C62.7208 51.8396 61.0333 51.2167 59.3771 51.6333C58.6604 51.8729 57.5958 52.2771 57.3667 52.4083L49.4354 57.4687C48.0875 58.3417 46.5646 58.9937 44.9146 59.4062C41.4313 60.3062 37.8063 60.1187 34.4417 58.8625C31.0854 57.6104 29.0208 55.0271 26.975 52.075C24.3042 48.2833 22.8583 42.6271 23.5958 38.6458C24.3146 34.4896 26.9125 30.6521 30.5417 28.3937C30.5521 28.3875 30.5625 28.3812 30.575 28.375L51.2188 16.6354C52.4938 15.8146 53.9542 15.1625 55.6792 14.6458C55.6917 14.6417 55.7021 14.6396 55.7146 14.6354C59.2042 13.7333 62.8292 13.9208 66.1958 15.1771C69.5479 16.4271 72.4021 18.6458 74.4479 21.5937C76.9979 25.1042 77.9979 29.4708 77.2604 33.8875C77.2583 33.9042 77.2542 33.9208 77.25 33.9375C77.1125 34.5521 76.95 35.2292 76.6938 36L76.6292 36.2062C76.4667 36.7292 76.0583 37.1458 75.5396 37.3187C75.0208 37.4937 74.4438 37.4062 73.9979 37.0896L73.7792 36.9333C71.3729 35.1833 68.7208 33.8562 65.8854 32.9854L65.1354 32.7604C64.6938 32.6271 64.4063 32.2 64.4521 31.7417L64.5271 31C64.5854 30.1479 64.3396 29.2437 63.8542 28.5146C62.9542 27.2208 61.15 26.6458 59.3708 27.0958C58.9708 27.2292 58.5958 27.3562 58.3188 27.5208L47.375 33.8583L37.7854 40.5937C36.9438 41.1354 36.425 41.8896 36.2479 42.8333C36.0729 43.7625 36.2979 44.7917 36.85 45.5875C37.8125 46.9708 39.5021 47.5958 41.1563 47.1771C41.5542 47.0437 41.9292 46.9167 42.2083 46.7521L49.9229 42.425C51.1979 41.6 52.6646 40.9437 54.4021 40.4229C54.3896 40.425 54.4146 40.4187 54.4021 40.4229C58.1813 39.4458 61.9229 39.2521 65.1563 39.8812C68.9563 40.6187 71.9979 42.4979 73.9542 45.3104C76.6792 49.0625 78.3688 54.075 77.675 58.2479C76.9521 62.4229 74.3542 66.2583 70.7271 68.5167L48.4479 82.4396C47.1813 83.2604 45.7146 83.9167 43.9771 84.4375C43.9646 84.4417 43.9542 84.4437 43.9417 84.4479C42.4875 84.825 41.0125 85.0125 39.5438 85.0125ZM24.2917 65.5417C23.6479 69.4396 24.5292 73.2833 26.7729 76.3667C26.7771 76.3729 26.7813 76.3792 26.7854 76.3833C30.4771 81.7083 37.1667 84.1979 43.4375 82.5854C44.9896 82.1187 46.2896 81.5375 47.4104 80.8125L69.7042 66.8812C72.875 64.9083 75.1437 61.5604 75.7729 57.925C76.3812 54.2792 74.8021 49.7542 72.3875 46.4354C72.3833 46.4292 72.3792 46.4229 72.375 46.4167C67.6667 39.625 57.8625 41.5208 54.9375 42.275C53.3854 42.7417 52.0875 43.3208 50.9646 44.0479L43.2333 48.3875C43.225 48.3917 43.2188 48.3979 43.2104 48.4021C42.7417 48.6833 42.2292 48.8542 41.7333 49.0187C41.7125 49.025 41.6917 49.0312 41.6708 49.0375C39.2167 49.6729 36.7021 48.7521 35.2646 46.6875C34.4125 45.4583 34.0813 43.925 34.3521 42.4792C34.6271 41.0146 35.4542 39.8 36.7458 38.9708L46.3563 32.2208L57.2938 25.8875C57.3 25.8833 57.3083 25.8792 57.3146 25.875C57.7833 25.5937 58.2958 25.4229 58.7917 25.2583C58.8125 25.2521 58.8354 25.2458 58.8563 25.2396C61.425 24.5729 64.0729 25.4542 65.4479 27.4312C66.1792 28.5271 66.5396 29.875 66.45 31.1458C69.4813 32.0792 72.3146 33.4937 74.8771 35.3521C75.0854 34.7187 75.2208 34.1708 75.3604 33.5479C76.0042 29.65 75.1229 25.8062 72.8792 22.7229C72.875 22.7167 72.8708 22.7104 72.8667 22.7042C69.175 17.3792 62.4854 14.8896 56.2125 16.5021C54.6604 16.9687 53.3604 17.5479 52.2396 18.275C52.225 18.2854 52.2083 18.2937 52.1917 18.3042L31.5417 30.0458C28.3813 32.0187 26.1188 35.3625 25.4917 38.9917C24.7292 43.1146 26.4958 48.0562 28.5542 50.975C32.2542 56.3104 38.1604 59.1625 44.4375 57.5417C45.8896 57.1792 47.2167 56.6104 48.3917 55.85L56.3417 50.7771C56.35 50.7729 56.3563 50.7667 56.3646 50.7625C56.9333 50.4208 58.7813 49.8021 58.8 49.7958C58.8208 49.7896 58.8417 49.7833 58.8625 49.7771C61.3167 49.1417 63.8313 50.0625 65.2688 52.1271C66.1208 53.3562 66.4521 54.8896 66.1813 56.3354C66.1479 56.5146 66.1167 56.7083 66.0833 56.9083C65.8688 58.2333 65.6042 59.8812 64.3458 60.6917C64.3396 60.6958 64.3313 60.7 64.325 60.7042L53.1125 66.8708L43.0938 73.5833C42.6208 73.8667 42.1104 74.0375 41.6146 74.2021C41.5938 74.2083 41.5708 74.2167 41.5479 74.2208C39.0458 74.8687 35.5083 73.6479 34.125 71.6604C33.3938 70.5646 33.0333 69.2167 33.1229 67.9458C30.4167 67.1125 28.0958 65.3937 25.8521 63.7333C25.5313 63.4958 25.2125 63.2604 24.8938 63.0271L24.7313 63.6229C24.6563 63.9583 24.5813 64.2771 24.5063 64.5958C24.4354 64.9062 24.3646 65.2146 24.2917 65.5417Z"
       fill="#010101" />
  </g>
</svg>
