<?xml version="1.0" encoding="UTF-8" standalone="no"?>
<!-- Created with Inkscape (http://www.inkscape.org/) -->

<svg
   width="32"
   height="32"
   viewBox="0 0 8.4666664 8.4666669"
   version="1.1"
   id="svg5"
   inkscape:version="1.1.2 (0a00cf5339, 2022-02-04)"
   sodipodi:docname="vite.svg"
   xmlns:inkscape="http://www.inkscape.org/namespaces/inkscape"
   xmlns:sodipodi="http://sodipodi.sourceforge.net/DTD/sodipodi-0.dtd"
   xmlns:xlink="http://www.w3.org/1999/xlink"
   xmlns="http://www.w3.org/2000/svg"
   xmlns:svg="http://www.w3.org/2000/svg">
  <sodipodi:namedview
     id="namedview7"
     pagecolor="#ffffff"
     bordercolor="#666666"
     borderopacity="1.0"
     inkscape:pageshadow="2"
     inkscape:pageopacity="0.0"
     inkscape:pagecheckerboard="0"
     inkscape:document-units="mm"
     showgrid="false"
     units="px"
     inkscape:showpageshadow="2"
     inkscape:deskcolor="#21222c"
     inkscape:zoom="10.429825"
     inkscape:cx="16.970563"
     inkscape:cy="17.354078"
     inkscape:window-width="1920"
     inkscape:window-height="1005"
     inkscape:window-x="0"
     inkscape:window-y="0"
     inkscape:window-maximized="1"
     inkscape:current-layer="layer1" />
  <defs
     id="defs2">
    <linearGradient
       inkscape:collect="always"
       xlink:href="#linearGradient963"
       id="linearGradient965"
       x1="1.3324401"
       y1="3.0319421"
       x2="21.475195"
       y2="17.27014"
       gradientUnits="userSpaceOnUse"
       gradientTransform="matrix(0.26458332,0,0,0.26458332,0,-0.40113384)" />
    <linearGradient
       inkscape:collect="always"
       id="linearGradient963">
      <stop
         style="stop-color:#48c8ff;stop-opacity:1;"
         offset="0"
         id="stop959" />
      <stop
         style="stop-color:#8944d2;stop-opacity:1"
         offset="1"
         id="stop961" />
    </linearGradient>
    <linearGradient
       inkscape:collect="always"
       xlink:href="#linearGradient1783"
       id="linearGradient1785"
       x1="13.9892"
       y1="1.25419"
       x2="10.4059"
       y2="15.5917"
       gradientUnits="userSpaceOnUse"
       gradientTransform="matrix(0.26458333,0,0,0.26458333,0,-0.40113384)" />
    <linearGradient
       inkscape:collect="always"
       id="linearGradient1783">
      <stop
         style="stop-color:#ffe45d;stop-opacity:1"
         offset="0"
         id="stop1779" />
      <stop
         style="stop-color:#ffa800;stop-opacity:1"
         offset="1"
         id="stop1781" />
    </linearGradient>
  </defs>
  <g
     inkscape:label="Layer 1"
     inkscape:groupmode="layer"
     id="layer1">
    <g
       id="g833"
       transform="translate(0,0.40113384)">
      <path
         d="M 8.0034769,1.1404292 4.4378515,7.5163904 C 4.3641272,7.6479651 4.175052,7.64887 4.1002788,7.5178572 L 0.46400457,1.1409684 C 0.38257954,0.99825119 0.50462903,0.82533194 0.66640053,0.85427402 L 4.2359861,1.4923715 c 0.022838,0.00414 0.046003,0.00396 0.068825,-1.769e-4 L 7.799645,0.85517142 C 7.9608565,0.82569439 8.0834575,0.9973489 8.0034769,1.1404292 Z"
         id="path2"
         style="fill:url(#linearGradient965);fill-opacity:1;stroke-width:0.264582" />
      <path
         d="M 5.9680942,0.05072614 3.2613449,0.581101 c -0.044444,0.00874 -0.07736,0.046494 -0.08015,0.091684 L 3.0147538,3.4847804 c -0.00391,0.066203 0.056905,0.117717 0.1216221,0.1026532 L 3.8899144,3.4135563 c 0.070478,-0.016177 0.1342669,0.045748 0.1197615,0.1167841 L 3.7857703,4.6266216 c -0.015064,0.073821 0.054117,0.1368867 0.1262729,0.1149269 L 4.3775008,4.6002 c 0.07217,-0.021914 0.1415273,0.041285 0.1263083,0.1153284 L 4.1480344,6.4375631 c -0.022316,0.1076515 0.1210553,0.1664324 0.1807728,0.074 l 0.039991,-0.061726 2.2055326,-4.401648 c 0.037,-0.073643 -0.026779,-0.157698 -0.1076514,-0.1420769 l -0.775659,0.1497 C 5.6180917,2.0699483 5.5561867,2.00207 5.5766282,1.9306595 L 6.0828438,0.1755081 C 6.1032854,0.104467 6.0411577,0.0364032 5.9680942,0.05072614 Z"
         id="path4"
         style="fill:url(#linearGradient1785);fill-opacity:1;stroke-width:0.264583" />
    </g>
  </g>
</svg>
